<svg viewBox="0 0 300 300.621" xmlns="http://www.w3.org/2000/svg"><path d="M121.125 75.12a9.375 9.375 0 1 1 9.375 9.376 9.5 9.5 0 0 1-9.375-9.375zM169 84.497a9.375 9.375 0 1 0-9.375-9.375A9.5 9.5 0 0 0 169 84.497zm-19 37a12.5 12.5 0 1 0-12.5-12.5 12.5 12.5 0 0 0 12.5 12.5zm-39.375 0a12.5 12.5 0 1 0-12.5-12.5 12.5 12.5 0 0 0 12.5 12.5zm78.75 0a12.5 12.5 0 1 0-12.5-12.5 12.5 12.5 0 0 0 12.5 12.5zm-59.125 9.625a12.5 12.5 0 1 0 12.5 12.5 12.5 12.5 0 0 0-12.5-12.5zm39.5 0a12.5 12.5 0 1 0 12.5 12.5 12.5 12.5 0 0 0-12.5-12.5zm-32.25 94a18.75 18.75 0 1 1-18.75-18.75 18.75 18.75 0 0 1 18.75 18.75zm-12.5 0a6.25 6.25 0 1 0-6.25 6.25 6.25 6.25 0 0 0 6.25-6.25zm75 0a18.75 18.75 0 1 1-18.75-18.75A18.75 18.75 0 0 1 200 225.12zm-12.5 0a6.25 6.25 0 1 0-6.25 6.25 6.25 6.25 0 0 0 6.25-6.25zm50 0a50 50 0 0 1-50 50h-75a50 50 0 0 1-14-98A87.5 87.5 0 0 1 78.125 56.37a90.25 90.25 0 0 1 17.75-18.75h108.25a90.25 90.25 0 0 1 17.75 18.75A87.5 87.5 0 0 1 201.5 177.12a50 50 0 0 1 36 48zm-87.5-50a68.75 68.75 0 0 0 68.75-68.75 67.5 67.5 0 0 0-12.5-39.25A62.5 62.5 0 0 0 197 56.37h-94.125A69.625 69.625 0 0 0 93.5 67.12a68.75 68.75 0 0 0 56.5 108zm68.75 50a31.25 31.25 0 0 0-31.25-31.25h-75a31.25 31.25 0 0 0 0 62.5h75a31.25 31.25 0 0 0 31.25-31.25z"/></svg>