<svg viewBox="0 0 300 300.621" xmlns="http://www.w3.org/2000/svg"><path d="M150 25.12a125 125 0 1 0 125 125 125 125 0 0 0-125-125zm0 225a100 100 0 1 1 100-100 100 100 0 0 1-100 100zm75-90.624a15.625 15.625 0 1 1-15.625-15.625A15.625 15.625 0 0 1 225 159.497zm-56.25 46.875A18.75 18.75 0 1 1 150 187.62a18.75 18.75 0 0 1 18.75 18.75zm-62.5-46.874a15.625 15.625 0 1 1-15.625-15.625 15.625 15.625 0 0 1 15.625 15.626zm12.5-34.375a18.75 18.75 0 1 1 18.75-18.75 18.75 18.75 0 0 1-18.75 18.75zm62.5 0A18.75 18.75 0 1 1 200 106.37a18.75 18.75 0 0 1-18.75 18.75z"/></svg>