<svg viewBox="0 0 300 300.621" xmlns="http://www.w3.org/2000/svg"><path d="m134.375 90.746c0 8.63-6.995 15.625-15.625 15.625s-15.625-6.995-15.625-15.624c0-8.63 6.996-15.625 15.625-15.625 8.63 0 15.625 6.996 15.625 15.626zm62.5 0c0 8.63-6.995 15.625-15.625 15.625s-15.625-6.995-15.625-15.624c0-8.63 6.995-15.625 15.625-15.625s15.625 6.996 15.625 15.626zm-28.125 53.124c0 10.356-8.395 18.75-18.75 18.75s-18.75-8.394-18.75-18.75c0-10.354 8.395-18.75 18.75-18.75s18.75 8.396 18.75 18.75zm-62.5 0c0 10.356-8.395 18.75-18.75 18.75s-18.75-8.394-18.75-18.75c0-10.354 8.395-18.75 18.75-18.75s18.75 8.396 18.75 18.75zm125 0c0 10.356-8.395 18.75-18.75 18.75s-18.75-8.394-18.75-18.75c0-10.354 8.395-18.75 18.75-18.75s18.75 8.396 18.75 18.75zm-93.75 56.25c0 10.356-8.395 18.75-18.75 18.75s-18.75-8.393-18.75-18.75c0-10.354 8.395-18.75 18.75-18.75s18.75 8.396 18.75 18.75zm62.5 0c0 10.356-8.395 18.75-18.75 18.75s-18.75-8.394-18.75-18.75c0-10.354 8.395-18.75 18.75-18.75s18.75 8.397 18.75 18.75zm-50 43.75c53.79 0 100-46.87 100-108 0-23.333-6.83-44.777-18.313-62.293-4.116-6.277-8.823-12.042-14.022-17.206h-135.33c-5.2 5.165-9.907 10.93-14.022 17.207-11.483 17.515-18.313 38.959-18.313 62.292 0 61.13 46.21 108 100 108zm-77.332-212.5h154.665c9.677 8.12 18.2 17.728 25.262 28.5 14.122 21.544 22.405 47.743 22.405 76 0 73.455-55.965 133-125 133-69.036 0-125-59.545-125-133 0-28.257 8.282-54.456 22.405-76 7.062-10.77 15.585-20.38 25.263-28.5z"/></svg>