<?xml version="1.0" encoding="UTF-8"?>
<svg id="Calque_1" data-name="Calque 1" xmlns="http://www.w3.org/2000/svg" version="1.1" viewBox="0 0 400 200">
  <defs>
    <style>
      .cls-1 {
        fill: #fff;
      }

      .cls-1, .cls-2, .cls-3 {
        stroke: #757575;
      }

      .cls-2, .cls-4, .cls-5 {
        stroke-miterlimit: 10;
      }

      .cls-2, .cls-5, .cls-6 {
        fill: #7cd858;
      }

      .cls-4 {
        fill: #757575;
        stroke-width: .2px;
      }

      .cls-4, .cls-5, .cls-7 {
        stroke: #fff;
      }

      .cls-5, .cls-7 {
        stroke-width: .5px;
      }

      .cls-7, .cls-3 {
        fill: #21a89a;
      }

      .cls-6 {
        stroke-width: 0px;
      }
    </style>
  </defs>
  <path class="cls-3" d="M122.9,46.2c-6.2-2-11-3-14.6-3s-4.9.5-6.9,1.6-3.7,2.5-5,4.3-2.4,3.8-3.1,6.1c-.7,2.3-1,4.7-1,7.1s.4,5.2,1.2,7.6c.8,2.4,1.9,4.4,3.3,6.2,1.4,1.8,3.1,3.1,5.1,4.2,2,1,4.1,1.5,6.5,1.5s2.7,0,4.3-.3v-17.3l18.4-2.1v33.3c-8.3,3.7-16.8,5.5-25.6,5.5s-18.9-3.8-26.1-11.3c-7.2-7.6-10.8-16.8-10.8-27.6s3.7-19.4,11-26.7c7.2-7.3,15.8-10.9,25.7-10.9s17.3,1.8,24.6,5.3l-7.1,16.5h0Z"/>
  <path class="cls-2" d="M121.4,42.7c-6.2-2-11-3-14.6-3s-4.9.5-6.9,1.6-3.7,2.5-5,4.3-2.4,3.8-3.1,6.1c-.7,2.3-1,4.7-1,7.1s.4,5.2,1.2,7.6c.8,2.4,1.9,4.4,3.3,6.2,1.4,1.8,3.1,3.1,5.1,4.2s4.1,1.5,6.5,1.5,2.7,0,4.3-.3v-17.3l18.4-2.1v33.3c-8.3,3.7-16.8,5.5-25.6,5.5s-18.9-3.8-26.1-11.3c-7.2-7.6-10.8-16.8-10.8-27.6s3.7-19.4,11-26.7c7.2-7.3,15.8-10.9,25.7-10.9s17.3,1.8,24.6,5.3l-7.1,16.5h0Z"/>
  <path class="cls-1" d="M118.8,39.8c-6.2-2-11-3-14.6-3s-4.9.5-6.9,1.6-3.7,2.5-5,4.3-2.4,3.8-3.1,6.1c-.7,2.3-1,4.7-1,7.1s.4,5.2,1.2,7.6c.8,2.4,1.9,4.4,3.3,6.2,1.4,1.8,3.1,3.1,5.1,4.2,2,1,4.1,1.5,6.5,1.5s2.7,0,4.3-.3v-17.3l18.4-2.1v33.3c-8.3,3.7-16.8,5.5-25.6,5.5s-18.9-3.8-26.1-11.3c-7.2-7.6-10.8-16.8-10.8-27.6s3.7-19.4,11-26.7c7.2-7.3,15.8-10.9,25.7-10.9s17.3,1.8,24.7,5.3l-7.1,16.5h0Z"/>
  <path class="cls-3" d="M137.8,26h51.4v16.1h-25.6v13.3h23.4v13.4h-23.4v14.3h25.6v16h-51.4V26Z"/>
  <path class="cls-2" d="M136.3,22.5h51.4v16.1h-25.6v13.3h23.4v13.4h-23.4v14.3h25.6v16h-51.4V22.5Z"/>
  <path class="cls-1" d="M133.6,19.6h51.4v16.1h-25.6v13.3h23.4v13.4h-23.4v14.3h25.6v16h-51.4V19.6Z"/>
  <path class="cls-3" d="M193.7,62.7c0-10.6,3.4-19.5,10.1-26.7,7.2-7.7,16.9-11.6,29.1-11.6s11.4,1,16.2,2.9c4.8,1.9,8.9,4.6,12.3,8,3.4,3.4,6,7.5,7.9,12.1,1.8,4.7,2.8,9.8,2.8,15.3s-.4,6.6-1.1,9.8-1.9,6.2-3.4,9c-1.5,2.8-3.4,5.4-5.6,7.8s-4.8,4.4-7.7,6.1-6.1,3.1-9.7,4-7.4,1.4-11.6,1.4-8.2-.5-11.8-1.5-6.8-2.3-9.8-4.1c-2.9-1.7-5.5-3.8-7.7-6.2s-4-5-5.5-7.8-2.6-5.8-3.3-9-1.1-6.4-1.1-9.7h0ZM232.9,81.6c2.7,0,5.1-.6,7-1.7,1.9-1.2,3.5-2.7,4.7-4.5s2.1-3.9,2.7-6.1c.6-2.2.9-4.4.9-6.6s-.4-5.4-1.1-7.7-1.7-4.4-3.1-6.1c-1.3-1.7-2.9-3.1-4.8-4.1-1.9-1-4-1.6-6.3-1.7-2.8,0-5.1.7-7.1,1.9s-3.5,2.7-4.8,4.5-2.1,3.9-2.7,6.2c-.6,2.3-.9,4.6-.9,6.9s.4,5.2,1.1,7.5c.7,2.3,1.7,4.3,3.1,6,1.3,1.7,3,3,4.9,4,1.9,1,4,1.5,6.4,1.5h0Z"/>
  <path class="cls-2" d="M192.2,59.2c0-10.6,3.4-19.5,10.1-26.7,7.2-7.7,16.9-11.6,29.1-11.6s11.4,1,16.2,2.9c4.8,1.9,8.9,4.6,12.3,8,3.4,3.4,6,7.4,7.9,12.1,1.8,4.7,2.8,9.8,2.8,15.3s-.4,6.6-1.1,9.8-1.9,6.2-3.4,9c-1.5,2.8-3.4,5.4-5.6,7.8s-4.8,4.4-7.7,6.1-6.1,3.1-9.7,4-7.4,1.4-11.6,1.4-8.2-.5-11.8-1.5-6.8-2.3-9.8-4.1c-2.9-1.7-5.5-3.8-7.7-6.2s-4-5-5.5-7.8-2.6-5.8-3.3-9-1.1-6.4-1.1-9.7h0ZM231.4,78.1c2.7,0,5.1-.6,7-1.7,1.9-1.2,3.5-2.7,4.7-4.5s2.1-3.9,2.7-6.1c.6-2.2.9-4.5.9-6.6s-.4-5.4-1.1-7.7-1.7-4.4-3.1-6.1c-1.3-1.7-2.9-3.1-4.8-4.1-1.9-1-4-1.6-6.3-1.7-2.8,0-5.1.7-7.1,1.9s-3.5,2.7-4.8,4.5-2.1,3.9-2.7,6.2c-.6,2.3-.9,4.6-.9,6.9s.4,5.2,1.1,7.5c.7,2.3,1.7,4.3,3.1,6,1.3,1.7,3,3,4.9,4,1.9,1,4,1.5,6.4,1.5h0Z"/>
  <path class="cls-1" d="M189.6,56.3c0-10.6,3.4-19.5,10.1-26.7,7.2-7.7,16.9-11.6,29.1-11.6s11.4,1,16.2,2.9c4.8,1.9,8.9,4.6,12.3,8,3.4,3.4,6,7.4,7.9,12.1,1.8,4.7,2.8,9.8,2.8,15.3s-.4,6.6-1.1,9.8c-.8,3.2-1.9,6.2-3.4,9-1.5,2.8-3.4,5.4-5.6,7.8s-4.8,4.4-7.7,6.1-6.1,3.1-9.7,4-7.4,1.4-11.6,1.4-8.2-.5-11.8-1.5-6.8-2.3-9.8-4.1c-2.9-1.7-5.5-3.8-7.7-6.2s-4-5-5.5-7.8-2.6-5.8-3.3-9-1.1-6.4-1.1-9.7h0ZM228.8,75.1c2.7,0,5.1-.6,7-1.7,1.9-1.2,3.5-2.7,4.7-4.5s2.1-3.9,2.7-6.1c.6-2.2.9-4.5.9-6.6s-.4-5.4-1.1-7.7-1.7-4.4-3.1-6.1c-1.3-1.7-2.9-3.1-4.8-4.1-1.9-1-4-1.6-6.3-1.7-2.8,0-5.1.7-7.1,1.9s-3.5,2.7-4.8,4.5-2.1,3.9-2.7,6.2c-.6,2.3-.9,4.6-.9,6.9s.4,5.2,1.1,7.5c.7,2.3,1.7,4.3,3.1,6,1.3,1.7,3,3,4.9,4,1.9,1,4,1.5,6.4,1.5h0Z"/>
  <path class="cls-3" d="M111,166.2c1.2,0,2.3,0,3.4-.2s2.1-.3,3.1-.6c1-.2,2.1-.6,3.2-.9,1.1-.4,2.3-.8,3.6-1.4l2.9,16.9c-6.2,3.6-12.9,5.4-20.2,5.4-10.3,0-19.1-3.5-26.5-10.4-7.7-7.2-11.6-16.5-11.7-27.9,0-5.6.9-10.7,2.9-15.3,1.9-4.7,4.5-8.7,7.9-12.1s7.3-6,11.9-7.9c4.6-1.9,9.5-2.8,14.9-2.8,7.6,0,14.5,1.8,20.7,5.3l-2.8,16.5c-5.1-1.9-9.7-2.9-13.8-2.9s-10.2,1.7-13.2,5-4.5,8.1-4.5,14.1.4,5.7,1.2,8.1c.8,2.4,2,4.4,3.6,6s3.5,2.9,5.8,3.8c2.3.9,4.9,1.3,7.8,1.3h0Z"/>
  <path class="cls-2" d="M109.4,162.7c1.2,0,2.3,0,3.4-.2s2.1-.3,3.1-.6c1-.2,2.1-.6,3.2-.9,1.1-.4,2.3-.8,3.6-1.4l2.9,16.9c-6.2,3.6-12.9,5.4-20.2,5.4-10.3,0-19.1-3.5-26.5-10.4-7.7-7.2-11.6-16.5-11.7-27.9,0-5.6.9-10.7,2.9-15.3,1.9-4.7,4.5-8.7,7.9-12.1s7.3-6,11.9-7.9c4.6-1.9,9.5-2.8,14.9-2.8,7.6,0,14.5,1.8,20.7,5.3l-2.8,16.5c-5.1-1.9-9.7-2.9-13.8-2.9s-10.2,1.7-13.2,5-4.5,8.1-4.5,14.1.4,5.7,1.2,8.1c.8,2.4,2,4.4,3.6,6s3.5,2.9,5.8,3.8c2.3.9,4.9,1.3,7.8,1.3h0Z"/>
  <path class="cls-1" d="M106.8,159.8c1.2,0,2.3,0,3.4-.2s2.1-.3,3.1-.6c1-.2,2.1-.6,3.2-.9,1.1-.4,2.3-.8,3.6-1.4l2.9,16.9c-6.2,3.6-12.9,5.4-20.2,5.4-10.3,0-19.1-3.5-26.5-10.4-7.7-7.2-11.6-16.5-11.7-27.9,0-5.6.9-10.7,2.9-15.3,1.9-4.7,4.5-8.7,7.9-12.1s7.3-6,11.9-7.9c4.6-1.9,9.5-2.8,14.9-2.8,7.6,0,14.5,1.8,20.7,5.3l-2.8,16.5c-5.1-1.9-9.7-2.9-13.8-2.9s-10.2,1.7-13.2,5-4.5,8-4.5,14.1.4,5.7,1.2,8.1c.8,2.4,2,4.4,3.6,6,1.6,1.6,3.5,2.9,5.8,3.8,2.3.9,4.9,1.3,7.8,1.3h0Z"/>
  <path class="cls-3" d="M204.3,110.5h31.8c5.9,0,11.3.9,16.1,2.7s8.9,4.3,12.3,7.5,6.1,7,7.9,11.4c1.9,4.4,2.8,9.3,2.8,14.5s-.9,10.6-2.8,15.2-4.5,8.5-7.9,11.7-7.6,5.8-12.4,7.6c-4.8,1.8-10.2,2.7-16.1,2.7h-31.8v-73.2h0ZM236.1,164.6c2.7,0,5-.6,6.9-1.7s3.5-2.6,4.8-4.4,2.2-3.7,2.8-5.9c.6-2.1.9-4.2.9-6.2s-.4-4.7-1.1-6.7-1.8-3.8-3.1-5.3c-1.4-1.5-3-2.6-4.8-3.5s-3.9-1.2-6.2-1.2h-8.3v34.9h8.3Z"/>
  <path class="cls-2" d="M202.8,107.1h31.8c5.9,0,11.3.9,16.1,2.7,4.8,1.8,8.9,4.3,12.4,7.5s6.1,7,7.9,11.4c1.9,4.4,2.8,9.3,2.8,14.5s-.9,10.6-2.8,15.2-4.5,8.5-7.9,11.7-7.6,5.8-12.4,7.6c-4.8,1.8-10.2,2.7-16.1,2.7h-31.8v-73.2h0ZM234.6,161.1c2.7,0,5-.6,6.9-1.7s3.5-2.6,4.8-4.4,2.2-3.7,2.8-5.9c.6-2.1.9-4.2.9-6.2s-.4-4.7-1.1-6.7-1.8-3.8-3.1-5.3c-1.4-1.5-3-2.6-4.8-3.5s-3.9-1.2-6.2-1.2h-8.3v35h8.3Z"/>
  <path class="cls-1" d="M200.1,104.1h31.8c5.9,0,11.3.9,16.1,2.7,4.8,1.8,8.9,4.3,12.4,7.5s6.1,7,7.9,11.4c1.9,4.4,2.8,9.3,2.8,14.5s-.9,10.6-2.8,15.2-4.5,8.5-7.9,11.7-7.6,5.8-12.4,7.6c-4.8,1.8-10.2,2.7-16.1,2.7h-31.8v-73.2h0ZM232,158.2c2.7,0,5-.6,6.9-1.7,1.9-1.1,3.5-2.6,4.8-4.4,1.2-1.8,2.2-3.7,2.8-5.9.6-2.1.9-4.2.9-6.2s-.4-4.7-1.1-6.7-1.8-3.8-3.1-5.3-3-2.7-4.8-3.5-3.9-1.2-6.2-1.2h-8.3v35h8.3Z"/>
  <path class="cls-3" d="M282.8,110.5h51.4v16.1h-25.6v13.3h23.4v13.4h-23.4v14.4h25.6v16h-51.4v-73.2Z"/>
  <path class="cls-2" d="M281.3,107.1h51.4v16.1h-25.6v13.3h23.4v13.4h-23.4v14.4h25.6v16h-51.4v-73.2h0Z"/>
  <path class="cls-1" d="M278.7,104.1h51.4v16.1h-25.6v13.3h23.4v13.4h-23.4v14.4h25.6v16h-51.4v-73.2Z"/>
  <g>
    <g>
      <path class="cls-4" d="M178.4,153.9h-30.8c-.6,0-1.1-.3-1.5-.8-1.8-3-2.7-6.6-2.7-10.5s.9-7.4,2.7-10.5c.3-.5.9-.8,1.5-.8h30.8c.6,0,1.2.3,1.5.9.3.5.3,1.2,0,1.7-1.4,2.5-2.3,5.6-2.3,8.8s.8,6.3,2.3,8.8c.3.5.3,1.2,0,1.7s-.9.9-1.5.9h0ZM148.6,150.5h27.1c-1-2.4-1.5-5.1-1.5-7.9s.5-5.5,1.5-7.9h-27.1c-1.2,2.3-1.8,5.1-1.8,7.9s.6,5.6,1.8,7.9h0ZM148.6,150.5h27.1"/>
      <path class="cls-4" d="M182.7,137.6h-2.1c-1,0-1.3,3.6-1.3,5s.2,5,1.3,5h2.1c1,0,1.3-3.6,1.3-5s-.2-5-1.3-5Z"/>
    </g>
    <g>
      <path class="cls-6" d="M164.2,142.6c0-2.3.4-4.5,1.1-6.5h-7.2c-.8,2-1.2,4.2-1.2,6.5s.4,4.5,1.2,6.5h7.2c-.7-2-1.1-4.2-1.1-6.5Z"/>
      <path class="cls-6" d="M173.7,136h-6.9c-.8,2-1.2,4.2-1.2,6.5s.4,4.5,1.2,6.5h6.9c-.6-2.1-.9-4.2-.9-6.5s.3-4.4.9-6.5Z"/>
      <path class="cls-6" d="M155.5,142.6c0-2.3.4-4.5,1.1-6.5h-7.2c-.8,2-1.3,4.2-1.3,6.5s.5,4.6,1.3,6.5h7.2c-.7-2-1.1-4.2-1.1-6.5Z"/>
    </g>
  </g>
  <path class="cls-7" d="M196.6,163.5l-25.6-.2,3.7,5.6c-13,6.3-29.5,2.4-37.1-9l-1.9,8.1-9.1-2.4h0c11.2,16.7,35.5,22.4,54.6,13l3.2,4.8,12.1-19.8h0Z"/>
  <path class="cls-5" d="M128.5,122.5l25.6.2-3.7-5.6c13-6.3,29.5-2.4,37.1,9l1.9-8.2,9.1,2.4h0c-11.2-16.7-35.5-22.4-54.6-13l-3.2-4.8-12.1,19.8h0Z"/>
</svg>